<svg width="1139" height="166" viewBox="0 0 1139 166" fill="none" xmlns="http://www.w3.org/2000/svg">
<g filter="url(#filter0_d_61_92)">
<path d="M637.7 139.4C628.9 139.4 620.4 138.4 612.2 136.4C604 134.4 597.25 131.8 591.95 128.6L603.35 102.8C608.35 105.7 613.9 108.05 620 109.85C626.2 111.55 632.2 112.4 638 112.4C641.4 112.4 644.05 112.2 645.95 111.8C647.95 111.3 649.4 110.65 650.3 109.85C651.2 108.95 651.65 107.9 651.65 106.7C651.65 104.8 650.6 103.3 648.5 102.2C646.4 101.1 643.6 100.2 640.1 99.5C636.7 98.7 632.95 97.9 628.85 97.1C624.75 96.2 620.6 95.05 616.4 93.65C612.3 92.25 608.5 90.4 605 88.1C601.6 85.8 598.85 82.8 596.75 79.1C594.65 75.3 593.6 70.6 593.6 65C593.6 58.5 595.4 52.6 599 47.3C602.7 41.9 608.15 37.6 615.35 34.4C622.65 31.2 631.7 29.6 642.5 29.6C649.6 29.6 656.6 30.35 663.5 31.85C670.4 33.35 676.6 35.65 682.1 38.75L671.45 64.4C666.25 61.8 661.2 59.85 656.3 58.55C651.5 57.25 646.8 56.6 642.2 56.6C638.8 56.6 636.1 56.9 634.1 57.5C632.1 58.1 630.65 58.9 629.75 59.9C628.95 60.9 628.55 62 628.55 63.2C628.55 65 629.6 66.45 631.7 67.55C633.8 68.55 636.55 69.4 639.95 70.1C643.45 70.8 647.25 71.55 651.35 72.35C655.55 73.15 659.7 74.25 663.8 75.65C667.9 77.05 671.65 78.9 675.05 81.2C678.55 83.5 681.35 86.5 683.45 90.2C685.55 93.9 686.6 98.5 686.6 104C686.6 110.4 684.75 116.3 681.05 121.7C677.45 127 672.05 131.3 664.85 134.6C657.65 137.8 648.6 139.4 637.7 139.4ZM736.284 139.4C727.484 139.4 718.984 138.4 710.784 136.4C702.584 134.4 695.834 131.8 690.534 128.6L701.934 102.8C706.934 105.7 712.484 108.05 718.584 109.85C724.784 111.55 730.784 112.4 736.584 112.4C739.984 112.4 742.634 112.2 744.534 111.8C746.534 111.3 747.984 110.65 748.884 109.85C749.784 108.95 750.234 107.9 750.234 106.7C750.234 104.8 749.184 103.3 747.084 102.2C744.984 101.1 742.184 100.2 738.684 99.5C735.284 98.7 731.534 97.9 727.434 97.1C723.334 96.2 719.184 95.05 714.984 93.65C710.884 92.25 707.084 90.4 703.584 88.1C700.184 85.8 697.434 82.8 695.334 79.1C693.234 75.3 692.184 70.6 692.184 65C692.184 58.5 693.984 52.6 697.584 47.3C701.284 41.9 706.734 37.6 713.934 34.4C721.234 31.2 730.284 29.6 741.084 29.6C748.184 29.6 755.184 30.35 762.084 31.85C768.984 33.35 775.184 35.65 780.684 38.75L770.034 64.4C764.834 61.8 759.784 59.85 754.884 58.55C750.084 57.25 745.384 56.6 740.784 56.6C737.384 56.6 734.684 56.9 732.684 57.5C730.684 58.1 729.234 58.9 728.334 59.9C727.534 60.9 727.134 62 727.134 63.2C727.134 65 728.184 66.45 730.284 67.55C732.384 68.55 735.134 69.4 738.534 70.1C742.034 70.8 745.834 71.55 749.934 72.35C754.134 73.15 758.284 74.25 762.384 75.65C766.484 77.05 770.234 78.9 773.634 81.2C777.134 83.5 779.934 86.5 782.034 90.2C784.134 93.9 785.184 98.5 785.184 104C785.184 110.4 783.334 116.3 779.634 121.7C776.034 127 770.634 131.3 763.434 134.6C756.234 137.8 747.184 139.4 736.284 139.4Z" fill="#101913"/>
</g>
<g filter="url(#filter1_d_61_92)">
<path d="M555.857 26C537.943 26 523.286 40.6571 523.286 58.5714V74.8571H507V140H604.714V74.8571H588.429V58.5714C588.429 40.6571 573.771 26 555.857 26ZM555.857 42.2857C564.977 42.2857 572.143 49.4514 572.143 58.5714V74.8571H539.571V58.5714C539.571 49.4514 546.737 42.2857 555.857 42.2857Z" fill="#101913"/>
</g>
<g filter="url(#filter2_d_61_92)">
<path d="M426.55 137V32H477.1C486.9 32 495.35 33.6 502.45 36.8C509.65 40 515.2 44.6 519.1 50.6C523 56.5 524.95 63.5 524.95 71.6C524.95 79.7 523 86.7 519.1 92.6C515.2 98.5 509.65 103.1 502.45 106.4C495.35 109.6 486.9 111.2 477.1 111.2H446.2L461.95 96.05V137H426.55ZM461.95 99.95L446.2 83.9H474.85C479.75 83.9 483.35 82.8 485.65 80.6C488.05 78.4 489.25 75.4 489.25 71.6C489.25 67.8 488.05 64.8 485.65 62.6C483.35 60.4 479.75 59.3 474.85 59.3H446.2L461.95 43.25V99.95Z" fill="#101913"/>
</g>
<g filter="url(#filter3_d_61_92)">
<path d="M47.7 139.4C38.9 139.4 30.4 138.4 22.2 136.4C14 134.4 7.25 131.8 1.95 128.6L13.35 102.8C18.35 105.7 23.9 108.05 30 109.85C36.2 111.55 42.2 112.4 48 112.4C51.4 112.4 54.05 112.2 55.95 111.8C57.95 111.3 59.4 110.65 60.3 109.85C61.2 108.95 61.65 107.9 61.65 106.7C61.65 104.8 60.6 103.3 58.5 102.2C56.4 101.1 53.6 100.2 50.1 99.5C46.7 98.7 42.95 97.9 38.85 97.1C34.75 96.2 30.6 95.05 26.4 93.65C22.3 92.25 18.5 90.4 15 88.1C11.6 85.8 8.85 82.8 6.75 79.1C4.65 75.3 3.6 70.6 3.6 65C3.6 58.5 5.4 52.6 9 47.3C12.7 41.9 18.15 37.6 25.35 34.4C32.65 31.2 41.7 29.6 52.5 29.6C59.6 29.6 66.6 30.35 73.5 31.85C80.4 33.35 86.6 35.65 92.1 38.75L81.45 64.4C76.25 61.8 71.2 59.85 66.3 58.55C61.5 57.25 56.8 56.6 52.2 56.6C48.8 56.6 46.1 56.9 44.1 57.5C42.1 58.1 40.65 58.9 39.75 59.9C38.95 60.9 38.55 62 38.55 63.2C38.55 65 39.6 66.45 41.7 67.55C43.8 68.55 46.55 69.4 49.95 70.1C53.45 70.8 57.25 71.55 61.35 72.35C65.55 73.15 69.7 74.25 73.8 75.65C77.9 77.05 81.65 78.9 85.05 81.2C88.55 83.5 91.35 86.5 93.45 90.2C95.55 93.9 96.6 98.5 96.6 104C96.6 110.4 94.75 116.3 91.05 121.7C87.45 127 82.05 131.3 74.85 134.6C67.65 137.8 58.6 139.4 47.7 139.4ZM95.734 137L141.634 32H176.434L222.334 137H185.734L151.834 48.8H165.634L131.734 137H95.734ZM123.034 118.7L132.034 93.2H180.334L189.334 118.7H123.034ZM260.984 76.7H307.184V103.4H260.984V76.7ZM263.384 137H227.984V32H313.334V58.7H263.384V137ZM356.917 71H403.717V96.5H356.917V71ZM359.317 110.3H411.817V137H324.517V32H409.867V58.7H359.317V110.3Z" fill="#101913"/>
</g>
<defs>
<filter id="filter0_d_61_92" x="591.95" y="29.6" width="205.233" height="121.8" filterUnits="userSpaceOnUse" color-interpolation-filters="sRGB">
<feFlood flood-opacity="0" result="BackgroundImageFix"/>
<feColorMatrix in="SourceAlpha" type="matrix" values="0 0 0 0 0 0 0 0 0 0 0 0 0 0 0 0 0 0 127 0" result="hardAlpha"/>
<feOffset dx="8" dy="8"/>
<feGaussianBlur stdDeviation="2"/>
<feComposite in2="hardAlpha" operator="out"/>
<feColorMatrix type="matrix" values="0 0 0 0 0 0 0 0 0 0 0 0 0 0 0 0 0 0 0.25 0"/>
<feBlend mode="normal" in2="BackgroundImageFix" result="effect1_dropShadow_61_92"/>
<feBlend mode="normal" in="SourceGraphic" in2="effect1_dropShadow_61_92" result="shape"/>
</filter>
<filter id="filter1_d_61_92" x="507" y="26" width="109.714" height="126" filterUnits="userSpaceOnUse" color-interpolation-filters="sRGB">
<feFlood flood-opacity="0" result="BackgroundImageFix"/>
<feColorMatrix in="SourceAlpha" type="matrix" values="0 0 0 0 0 0 0 0 0 0 0 0 0 0 0 0 0 0 127 0" result="hardAlpha"/>
<feOffset dx="8" dy="8"/>
<feGaussianBlur stdDeviation="2"/>
<feComposite in2="hardAlpha" operator="out"/>
<feColorMatrix type="matrix" values="0 0 0 0 0 0 0 0 0 0 0 0 0 0 0 0 0 0 0.25 0"/>
<feBlend mode="normal" in2="BackgroundImageFix" result="effect1_dropShadow_61_92"/>
<feBlend mode="normal" in="SourceGraphic" in2="effect1_dropShadow_61_92" result="shape"/>
</filter>
<filter id="filter2_d_61_92" x="426.55" y="32" width="110.4" height="117" filterUnits="userSpaceOnUse" color-interpolation-filters="sRGB">
<feFlood flood-opacity="0" result="BackgroundImageFix"/>
<feColorMatrix in="SourceAlpha" type="matrix" values="0 0 0 0 0 0 0 0 0 0 0 0 0 0 0 0 0 0 127 0" result="hardAlpha"/>
<feOffset dx="8" dy="8"/>
<feGaussianBlur stdDeviation="2"/>
<feComposite in2="hardAlpha" operator="out"/>
<feColorMatrix type="matrix" values="0 0 0 0 0 0 0 0 0 0 0 0 0 0 0 0 0 0 0.25 0"/>
<feBlend mode="normal" in2="BackgroundImageFix" result="effect1_dropShadow_61_92"/>
<feBlend mode="normal" in="SourceGraphic" in2="effect1_dropShadow_61_92" result="shape"/>
</filter>
<filter id="filter3_d_61_92" x="1.9502" y="29.6" width="421.866" height="121.8" filterUnits="userSpaceOnUse" color-interpolation-filters="sRGB">
<feFlood flood-opacity="0" result="BackgroundImageFix"/>
<feColorMatrix in="SourceAlpha" type="matrix" values="0 0 0 0 0 0 0 0 0 0 0 0 0 0 0 0 0 0 127 0" result="hardAlpha"/>
<feOffset dx="8" dy="8"/>
<feGaussianBlur stdDeviation="2"/>
<feComposite in2="hardAlpha" operator="out"/>
<feColorMatrix type="matrix" values="0 0 0 0 0 0 0 0 0 0 0 0 0 0 0 0 0 0 0.25 0"/>
<feBlend mode="normal" in2="BackgroundImageFix" result="effect1_dropShadow_61_92"/>
<feBlend mode="normal" in="SourceGraphic" in2="effect1_dropShadow_61_92" result="shape"/>
</filter>
</defs>
</svg>
