<svg width="108" height="108" viewBox="0 0 108 108" fill="none" xmlns="http://www.w3.org/2000/svg">
<path d="M46.8261 0.133789C21.0048 0.133789 0 21.1386 0 46.9599C0 72.7811 21.0048 93.7859 46.8261 93.7859C54.7196 93.7859 62.4794 91.9129 69.035 88.3006C69.5601 88.9325 70.1423 89.5147 70.7743 90.0398L84.1531 103.419C85.3885 104.809 86.895 105.932 88.58 106.718C90.265 107.505 92.0931 107.939 93.952 107.994C95.8109 108.049 97.6613 107.723 99.3897 107.037C101.118 106.35 102.688 105.318 104.003 104.003C105.318 102.688 106.35 101.118 107.037 99.3898C107.723 97.6613 108.049 95.8109 107.994 93.952C107.939 92.0931 107.505 90.2651 106.718 88.58C105.932 86.895 104.809 85.3885 103.419 84.1531L90.0398 70.7743C89.3881 70.1223 88.6708 69.5395 87.8992 69.035C91.5115 62.4794 93.7859 54.8534 93.7859 46.8261C93.7859 21.0048 72.7811 0 46.9599 0L46.8261 0.133789ZM46.8261 13.5127C65.4227 13.5127 80.2733 28.3632 80.2733 46.9599C80.2733 55.7899 77.0623 63.951 71.4432 69.9715C71.3094 70.1053 71.1756 70.2391 71.0418 70.3729C70.4099 70.898 69.8277 71.4802 69.3026 72.1122C63.4159 77.4637 55.3886 80.5408 46.6923 80.5408C28.0956 80.5408 13.2451 65.6903 13.2451 47.0936C13.2451 28.497 28.0956 13.6465 46.6923 13.6465L46.8261 13.5127Z" fill="#DAD7CD"/>
</svg>
