<svg width="109" height="82" viewBox="0 0 109 82" fill="none" xmlns="http://www.w3.org/2000/svg">
<path d="M54.6325 0C20.3347 0 0 40.6693 0 40.6693C0 40.6693 20.3347 81.3387 54.6325 81.3387C88.1169 81.3387 108.452 40.6693 108.452 40.6693C108.452 40.6693 88.1169 0 54.6325 0ZM54.2258 13.5564C69.2734 13.5564 81.3387 25.7572 81.3387 40.6693C81.3387 55.717 69.2734 67.7822 54.2258 67.7822C39.3137 67.7822 27.1129 55.717 27.1129 40.6693C27.1129 25.7572 39.3137 13.5564 54.2258 13.5564ZM54.2258 27.1129C46.7697 27.1129 40.6693 33.2133 40.6693 40.6693C40.6693 48.1254 46.7697 54.2258 54.2258 54.2258C61.6818 54.2258 67.7822 48.1254 67.7822 40.6693C67.7822 39.3137 67.24 38.0936 66.9688 36.8735C65.8843 39.0426 63.7153 40.6693 61.004 40.6693C57.2082 40.6693 54.2258 37.6869 54.2258 33.8911C54.2258 31.1798 55.8525 29.0108 58.0216 27.9263C56.8015 27.5196 55.5814 27.1129 54.2258 27.1129Z" fill="#DAD7CD"/>
</svg>
