<svg width="126" height="126" viewBox="0 0 126 126" fill="none" xmlns="http://www.w3.org/2000/svg">
<path d="M63 0C28.213 0 0 28.213 0 63C0 97.787 28.213 126 63 126C97.787 126 126 97.787 126 63C126 28.213 97.787 0 63 0ZM68.0674 114.77C67.7935 114.77 67.5196 114.77 67.1087 114.907V85.187C74.2304 85.05 80.6674 84.913 86.5565 84.5022C81.3522 100.526 71.6283 111.209 68.0674 114.77ZM57.9326 114.77C54.2348 111.072 44.6478 100.389 39.4435 84.5022C45.1957 84.913 51.7696 85.187 58.8913 85.187V114.907C58.6174 114.907 58.3435 114.77 57.9326 114.77ZM10.9565 63C10.9565 59.5761 11.3674 56.1522 11.9152 52.8652C14.9283 52.3174 20.6804 51.4957 28.7609 50.6739C28.0761 54.6457 27.6652 58.7543 27.6652 63.137C27.6652 67.5196 28.0761 71.6283 28.6239 75.463C20.6804 74.6413 14.7913 73.8196 11.7783 73.2717C11.3674 69.8478 10.9565 66.4239 10.9565 63ZM36.0196 63C36.0196 58.3435 36.5674 53.9609 37.3891 49.8522C43.6891 49.4413 50.8109 49.0304 58.8913 49.0304V76.9696C50.9478 76.8326 43.6891 76.5587 37.2522 76.0109C36.5674 72.0391 36.0196 67.6565 36.0196 63ZM67.9304 11.2304C71.6283 14.9283 81.0783 25.8848 86.4196 41.4978C80.6674 41.087 74.2304 40.813 67.1087 40.813V11.0935C67.3826 11.0935 67.6565 11.2304 67.9304 11.2304ZM58.8913 11.0935V40.813C51.7696 40.95 45.3326 41.087 39.5804 41.4978C44.7848 25.8848 54.3717 14.9283 57.9326 11.2304C58.3435 11.2304 58.6174 11.0935 58.8913 11.0935ZM67.1087 76.9696V49.0304C75.0522 49.1674 82.3109 49.4413 88.6109 49.8522C89.4326 53.9609 89.9804 58.3435 89.9804 63C89.9804 67.6565 89.5696 72.0391 88.7478 76.1478C82.4478 76.5587 75.1891 76.8326 67.1087 76.9696ZM97.1022 50.6739C105.183 51.4957 110.935 52.3174 113.948 52.8652C114.633 56.1522 115.043 59.5761 115.043 63C115.043 66.4239 114.633 69.8478 114.085 73.1348C111.072 73.6826 105.32 74.5043 97.2391 75.3261C97.9239 71.3543 98.1978 67.2457 98.1978 62.863C98.1978 58.7544 97.787 54.5087 97.1022 50.6739ZM111.483 44.1C107.648 43.5522 102.17 42.8674 95.1848 42.1826C91.8978 30.4043 86.1457 20.9543 81.3522 14.2435C95.1848 19.4478 106.141 30.4043 111.483 44.1ZM44.6478 14.2435C39.7174 20.8174 34.1022 30.2674 30.8152 42.0457C23.9674 42.5935 18.4891 43.4152 14.5174 43.963C19.8587 30.4043 30.9522 19.4478 44.6478 14.2435ZM14.5174 81.9C18.3522 82.4478 23.8304 83.1326 30.6783 83.8174C33.9652 95.5957 39.4435 105.046 44.3739 111.62C30.6783 106.278 19.8587 95.4587 14.5174 81.9ZM81.6261 111.62C86.5565 105.046 92.0348 95.7326 95.3217 83.9543C102.17 83.4065 107.648 82.5848 111.483 82.037C106.141 95.4587 95.3217 106.278 81.6261 111.62Z" fill="#DAD7CD"/>
</svg>
